<svg width="37" height="42" viewBox="0 0 37 42" fill="none" xmlns="http://www.w3.org/2000/svg">
<path d="M0.386963 6.14865C0.386963 2.75284 3.15853 0 6.57744 0H30.1787C33.5975 0 36.3691 2.75284 36.3691 6.14865C36.3691 9.54443 33.5975 12.2973 30.1787 12.2973H6.57744C3.15853 12.2973 0.386963 9.54443 0.386963 6.14865Z" fill="#2262C6"/>
<path d="M12.3809 6.14865C12.3809 2.75284 15.1524 0 18.5714 0H30.1785C33.5974 0 36.3689 2.75284 36.3689 6.14865C36.3689 9.54443 33.5974 12.2973 30.1785 12.2973H18.5714C15.1524 12.2973 12.3809 9.54443 12.3809 6.14865Z" fill="#639CF6" fill-opacity="0.5"/>
<path d="M20.5059 6.14865C20.5059 2.75284 23.2774 0 26.6964 0H30.1785C33.5974 0 36.3689 2.75284 36.3689 6.14865C36.3689 9.54443 33.5974 12.2973 30.1785 12.2973H26.6964C23.2774 12.2973 20.5059 9.54443 20.5059 6.14865Z" fill="#FFC5A0"/>
<path d="M6.19048 42C2.77157 42 0 39.2472 0 35.8513V26.6284C0 23.2326 2.77157 20.4797 6.19048 20.4797C9.60936 20.4797 12.3809 23.2326 12.3809 26.6284V35.8513C12.3809 39.2472 9.60936 42 6.19048 42Z" fill="#FFC5A0"/>
<path d="M6.19048 35.8513C2.77157 35.8513 0 33.0985 0 29.7027V20.4797C0 17.0839 2.77157 14.3311 6.19048 14.3311C9.60936 14.3311 12.3809 17.0839 12.3809 20.4797V29.7027C12.3809 33.0985 9.60936 35.8513 6.19048 35.8513Z" fill="#427FDE"/>
<path d="M0 20.4797C0 17.0839 2.77157 14.3311 6.19048 14.3311H17.7976C21.2165 14.3311 23.9881 17.0839 23.9881 20.4797C23.9881 23.8756 21.2165 26.6284 17.7976 26.6284H6.19048C2.77158 26.6284 0 23.8756 0 20.4797Z" fill="#2262C6"/>
</svg>
